<svg width="27" height="28" viewBox="0 0 27 28" fill="none" xmlns="http://www.w3.org/2000/svg">
<path d="M7.94267 24.1106C7.66489 23.8329 7.526 23.504 7.526 23.124C7.526 22.7447 7.66489 22.4162 7.94267 22.1384L16.0816 13.9995L7.91489 5.83286C7.65563 5.5736 7.526 5.24953 7.526 4.86064C7.526 4.47175 7.66489 4.13841 7.94267 3.86064C8.22045 3.58286 8.54933 3.44397 8.92933 3.44397C9.30859 3.44397 9.63711 3.58286 9.91489 3.86064L19.2482 13.2217C19.3593 13.3329 19.4382 13.4532 19.4849 13.5829C19.5308 13.7125 19.5538 13.8514 19.5538 13.9995C19.5538 14.1477 19.5308 14.2866 19.4849 14.4162C19.4382 14.5458 19.3593 14.6662 19.2482 14.7773L9.88711 24.1384C9.62785 24.3977 9.30859 24.5273 8.92933 24.5273C8.54933 24.5273 8.22045 24.3884 7.94267 24.1106Z" fill="black"/>
</svg>
