<svg width="32" height="33" viewBox="0 0 32 33" fill="none" xmlns="http://www.w3.org/2000/svg">
<g id="akar-icons:facebook-fill" clip-path="url(#clip0_53_2087)">
<g id="Group">
<g id="Group_2">
<path id="Vector" fill-rule="evenodd" clip-rule="evenodd" d="M0.27832 16.7901C0.27832 24.6314 5.97329 31.1518 13.4216 32.474V21.0827H9.4786V16.7021H13.4216V13.1968C13.4216 9.2538 15.9622 7.06413 19.5555 7.06413C20.6937 7.06413 21.9213 7.23894 23.0595 7.41374V11.4448H21.0447C19.1165 11.4448 18.6789 12.4082 18.6789 13.6358V16.7021H22.8847L22.1842 21.0827H18.6789V32.474C26.1272 31.1518 31.8221 24.6327 31.8221 16.7901C31.8221 8.06696 24.7248 0.930176 16.0502 0.930176C7.37568 0.930176 0.27832 8.06696 0.27832 16.7901Z" fill="white"/>
</g>
</g>
</g>
<defs>
<clipPath id="clip0_53_2087">
<rect width="31.5438" height="31.5438" fill="white" transform="translate(0.278076 0.932617)"/>
</clipPath>
</defs>
</svg>
