<svg width="28" height="28" viewBox="0 0 28 28" fill="none" xmlns="http://www.w3.org/2000/svg">
<path d="M14.2826 21.229L14.1698 21.3418L14.0458 21.229C8.68766 16.3673 5.14569 13.1524 5.14569 9.89245C5.14569 7.63642 6.83771 5.94439 9.09375 5.94439C10.8309 5.94439 12.5229 7.07241 13.1208 8.60651H15.2189C15.8167 7.07241 17.5088 5.94439 19.2459 5.94439C21.502 5.94439 23.194 7.63642 23.194 9.89245C23.194 13.1524 19.652 16.3673 14.2826 21.229ZM19.2459 3.68835C17.2832 3.68835 15.3994 4.60205 14.1698 6.03463C12.9403 4.60205 11.0565 3.68835 9.09375 3.68835C5.61945 3.68835 2.88965 6.40688 2.88965 9.89245C2.88965 14.1451 6.72491 17.6307 12.5342 22.8985L14.1698 24.3875L15.8055 22.8985C21.6148 17.6307 25.45 14.1451 25.45 9.89245C25.45 6.40688 22.7202 3.68835 19.2459 3.68835Z" fill="#163B5C"/>
</svg>
