<svg width="33" height="32" viewBox="0 0 33 32" fill="none" xmlns="http://www.w3.org/2000/svg">
<g id="ph:linkedin-logo-fill">
<path id="Vector" d="M26.7454 3.53613H6.04473C5.52186 3.53613 5.0204 3.74384 4.65068 4.11357C4.28095 4.48329 4.07324 4.98475 4.07324 5.50762V26.2082C4.07324 26.7311 4.28095 27.2326 4.65068 27.6023C5.0204 27.972 5.52186 28.1797 6.04473 28.1797H26.7454C27.2682 28.1797 27.7697 27.972 28.1394 27.6023C28.5091 27.2326 28.7168 26.7311 28.7168 26.2082V5.50762C28.7168 4.98475 28.5091 4.48329 28.1394 4.11357C27.7697 3.74384 27.2682 3.53613 26.7454 3.53613ZM12.4521 21.7724C12.4521 22.0338 12.3482 22.2846 12.1633 22.4694C11.9785 22.6543 11.7278 22.7581 11.4663 22.7581C11.2049 22.7581 10.9542 22.6543 10.7693 22.4694C10.5844 22.2846 10.4806 22.0338 10.4806 21.7724V13.8864C10.4806 13.625 10.5844 13.3743 10.7693 13.1894C10.9542 13.0046 11.2049 12.9007 11.4663 12.9007C11.7278 12.9007 11.9785 13.0046 12.1633 13.1894C12.3482 13.3743 12.4521 13.625 12.4521 13.8864V21.7724ZM11.4663 11.4221C11.1739 11.4221 10.888 11.3354 10.6448 11.1729C10.4017 11.0104 10.2122 10.7795 10.1003 10.5093C9.98835 10.2391 9.95907 9.94183 10.0161 9.65501C10.0732 9.36818 10.214 9.10472 10.4208 8.89793C10.6276 8.69114 10.891 8.55032 11.1779 8.49326C11.4647 8.43621 11.762 8.46549 12.0322 8.57741C12.3023 8.68932 12.5333 8.87884 12.6957 9.12199C12.8582 9.36515 12.9449 9.65103 12.9449 9.94347C12.9449 10.3356 12.7892 10.7117 12.5119 10.989C12.2346 11.2663 11.8585 11.4221 11.4663 11.4221ZM23.2953 21.7724C23.2953 22.0338 23.1914 22.2846 23.0065 22.4694C22.8217 22.6543 22.5709 22.7581 22.3095 22.7581C22.0481 22.7581 21.7973 22.6543 21.6125 22.4694C21.4276 22.2846 21.3238 22.0338 21.3238 21.7724V17.3366C21.3238 16.683 21.0641 16.0561 20.602 15.594C20.1398 15.1318 19.513 14.8722 18.8594 14.8722C18.2058 14.8722 17.579 15.1318 17.1168 15.594C16.6547 16.0561 16.395 16.683 16.395 17.3366V21.7724C16.395 22.0338 16.2912 22.2846 16.1063 22.4694C15.9215 22.6543 15.6707 22.7581 15.4093 22.7581C15.1479 22.7581 14.8971 22.6543 14.7123 22.4694C14.5274 22.2846 14.4236 22.0338 14.4236 21.7724V13.8864C14.4229 13.6439 14.5117 13.4095 14.673 13.2283C14.8342 13.0471 15.0567 12.9317 15.2977 12.9043C15.5388 12.8768 15.7814 12.9392 15.9794 13.0795C16.1773 13.2198 16.3165 13.4281 16.3704 13.6647C17.0374 13.2125 17.815 12.9506 18.6196 12.907C19.4242 12.8635 20.2255 13.0399 20.9374 13.4174C21.6494 13.7949 22.245 14.3592 22.6604 15.0497C23.0758 15.7401 23.2953 16.5307 23.2953 17.3366V21.7724Z" fill="white"/>
</g>
</svg>
