<svg width="40" height="40" viewBox="0 0 40 40" fill="none" xmlns="http://www.w3.org/2000/svg">
<g opacity="0.3">
<path d="M33.0586 14.2012C33.8513 15.6191 33.9545 17.4462 33.542 19.5618C32.3496 25.6943 28.2635 27.8115 23.0462 27.8115H22.2406C21.9319 27.8119 21.6334 27.9225 21.3989 28.1234C21.1644 28.3242 21.0092 28.6021 20.9613 28.9071L20.8968 29.2616L19.8817 35.6953L19.8302 35.9693C19.7822 36.2741 19.627 36.5518 19.3924 36.7524C19.1579 36.953 18.8594 37.0632 18.5508 37.0633H13.1644C13.052 37.0633 12.9409 37.0389 12.8389 36.9918C12.7368 36.9448 12.6461 36.8762 12.5731 36.7907C12.5 36.7053 12.4464 36.6051 12.4158 36.4969C12.3852 36.3887 12.3784 36.2752 12.3958 36.1642L12.6778 34.3773H15.1237L16.6544 24.6776H18.886C26.4234 24.6776 31.3732 21.128 33.0586 14.2012ZM28.2893 5.99985C29.517 7.39843 29.8731 8.91623 29.5009 11.2928C29.4703 11.491 29.4365 11.6795 29.401 11.8729C28.2168 17.9522 24.4239 20.6478 18.1931 20.6478H15.1575C14.1424 20.6478 13.2659 21.3149 12.9759 22.2623L12.9533 22.2591L11.4548 31.7558H5.75422C5.74222 31.7558 5.73039 31.7531 5.71954 31.748C5.70869 31.7429 5.69909 31.7355 5.69141 31.7262C5.68373 31.717 5.67816 31.7062 5.6751 31.6947C5.67203 31.6831 5.67154 31.6709 5.67365 31.6591L9.8597 5.05727C9.91614 4.6969 10.0994 4.36853 10.3765 4.13132C10.6536 3.89411 11.0063 3.76364 11.3711 3.76343H20.9999C24.5173 3.76343 26.9874 4.51911 28.2877 5.99985H28.2893Z" fill="#010101"/>
</g>
</svg>
