<svg width="33" height="32" viewBox="0 0 33 32" fill="none" xmlns="http://www.w3.org/2000/svg">
<g id="akar-icons:pinterest-fill" clip-path="url(#clip0_53_2080)">
<g id="Group">
<g id="Group_2">
<g id="Group_3">
<path id="Vector" d="M0.695679 15.8559C0.695679 22.5892 4.91598 28.338 10.8554 30.6C10.7108 29.3685 10.5571 27.3378 10.8883 25.9131C11.1735 24.6882 12.7296 18.1086 12.7296 18.1086C12.7296 18.1086 12.2604 17.1689 12.2604 15.777C12.2604 13.5952 13.5248 11.9655 15.1007 11.9655C16.4413 11.9655 17.0879 12.9709 17.0879 14.1762C17.0879 15.5234 16.2297 17.5369 15.7868 19.4046C15.4174 20.9673 16.5714 22.2422 18.1118 22.2422C20.9021 22.2422 23.0484 19.2994 23.0484 15.0515C23.0484 11.2912 20.3462 8.6639 16.4886 8.6639C12.0225 8.6639 9.40046 12.0141 9.40046 15.4774C9.40046 16.8272 9.91961 18.2729 10.5689 19.0602C10.6242 19.1197 10.6634 19.1924 10.6825 19.2713C10.7016 19.3503 10.7 19.4328 10.678 19.511C10.5584 20.0078 10.2929 21.0738 10.2416 21.2919C10.172 21.5785 10.0142 21.6402 9.71589 21.5009C7.75492 20.5888 6.52997 17.7222 6.52997 15.4195C6.52997 10.4658 10.1273 5.91828 16.9026 5.91828C22.3492 5.91828 26.5826 9.79948 26.5826 14.9858C26.5826 20.3969 23.172 24.7526 18.4351 24.7526C16.8435 24.7526 15.3491 23.9245 14.8365 22.948C14.8365 22.948 14.0492 25.9473 13.8586 26.6807C13.488 28.1054 12.4602 29.9087 11.8228 30.9325C13.2922 31.3846 14.851 31.6278 16.4676 31.6278C25.1776 31.6278 32.2395 24.5659 32.2395 15.8559C32.2395 7.14586 25.1776 0.0839844 16.4676 0.0839844C7.75755 0.0839844 0.695679 7.14586 0.695679 15.8559Z" fill="white"/>
</g>
</g>
</g>
</g>
<defs>
<clipPath id="clip0_53_2080">
<rect width="31.5438" height="31.5438" fill="white" transform="translate(0.695312 0.0869141)"/>
</clipPath>
</defs>
</svg>
