<svg width="40" height="40" viewBox="0 0 40 40" fill="none" xmlns="http://www.w3.org/2000/svg">
<g opacity="0.3" clip-path="url(#clip0_366_7567)">
<path d="M32.5703 23.0987C33.191 23.099 33.7878 23.3381 34.237 23.7664C34.6862 24.1947 34.9534 24.7794 34.9832 25.3994C35.0131 26.0194 34.8032 26.627 34.3972 27.0965C33.9912 27.566 33.4201 27.8613 32.8023 27.9212L32.5703 27.9324H12.6246L14.9448 30.2526C15.3843 30.6906 15.6385 31.2807 15.6549 31.9009C15.6713 32.5211 15.4485 33.1239 15.0328 33.5844C14.617 34.0449 14.04 34.3279 13.4214 34.3747C12.8027 34.4216 12.1898 34.2287 11.7094 33.8361L11.5257 33.6701L5.35618 27.499C3.78682 25.9296 4.80836 23.2823 6.95294 23.1083L7.17852 23.0987H32.5703ZM24.4174 6.08377C24.8401 5.66065 25.4047 5.40931 26.0021 5.37836C26.5994 5.34741 27.1869 5.53904 27.6512 5.9162L27.8348 6.08216L34.0043 12.2533C35.5737 13.8226 34.5522 16.4699 32.4076 16.644L32.182 16.6536H6.7902C6.16952 16.6533 5.57275 16.4142 5.12354 15.9859C4.67434 15.5576 4.40713 14.9729 4.37731 14.3529C4.34748 13.7329 4.55731 13.1252 4.96332 12.6558C5.36933 12.1863 5.9404 11.891 6.55818 11.8311L6.7902 11.8199H26.736L24.4158 9.49964C23.9632 9.04647 23.7089 8.43219 23.7089 7.79171C23.7089 7.15123 23.9632 6.53694 24.4158 6.08377H24.4174Z" fill="#010101"/>
</g>
<defs>
<clipPath id="clip0_366_7567">
<rect width="38.6702" height="38.6702" fill="white" transform="translate(0.345215 0.541016)"/>
</clipPath>
</defs>
</svg>
