<svg width="26" height="26" viewBox="0 0 26 26" fill="none" xmlns="http://www.w3.org/2000/svg">
<g id="material-symbols:arrow-forward-ios-rounded">
<path id="Vector" d="M21.7783 17.9497C21.5246 18.19 21.2288 18.3057 20.8908 18.2965C20.5535 18.2874 20.2647 18.156 20.0243 17.9023L12.9812 10.4684L5.52189 17.5355C5.28509 17.7598 4.99375 17.8673 4.64788 17.858C4.30202 17.8487 4.00889 17.7171 3.76852 17.4634C3.52814 17.2097 3.41251 16.9138 3.42164 16.5759C3.43074 16.2386 3.56216 15.9497 3.81587 15.7094L12.3655 7.63333C12.467 7.53718 12.5759 7.46991 12.6924 7.43152C12.8087 7.39378 12.9328 7.3767 13.0646 7.38025C13.1963 7.38381 13.3193 7.40757 13.4335 7.45153C13.5477 7.49614 13.6528 7.5692 13.749 7.67068L21.8497 16.221C22.0741 16.4578 22.1817 16.7448 22.1726 17.0821C22.1635 17.4201 22.032 17.7093 21.7783 17.9497Z" fill="#EBEBEB"/>
</g>
</svg>
