<svg width="29" height="34" viewBox="0 0 29 34" fill="none" xmlns="http://www.w3.org/2000/svg">
<path d="M28.3168 5.17422H20.0812V1.63047C20.0812 1.31718 19.9568 1.01673 19.7353 0.795199C19.5137 0.573671 19.2133 0.449219 18.9 0.449219H9.45C9.13671 0.449219 8.83626 0.573671 8.61473 0.795199C8.3932 1.01673 8.26875 1.31718 8.26875 1.63047V5.17422H0.0332224L0 8.12734H2.43633L3.91953 31.3094C3.95708 31.9089 4.22156 32.4715 4.65918 32.883C5.09681 33.2944 5.67473 33.5237 6.27539 33.5242H22.0746C22.6749 33.5241 23.2527 33.2955 23.6906 32.8848C24.1284 32.4741 24.3935 31.9122 24.4319 31.3131L25.9137 8.12734H28.35L28.3168 5.17422ZM8.26875 28.7992L7.6043 9.89922H10.0406L10.7051 28.7992H8.26875ZM15.3562 28.7992H12.9937V9.89922H15.3562V28.7992ZM17.1281 5.17422H11.2219V3.10703C11.2219 3.02871 11.253 2.9536 11.3084 2.89821C11.3638 2.84283 11.4389 2.81172 11.5172 2.81172H16.8328C16.9111 2.81172 16.9862 2.84283 17.0416 2.89821C17.097 2.9536 17.1281 3.02871 17.1281 3.10703V5.17422ZM20.0812 28.7992H17.6449L18.3094 9.89922H20.7457L20.0812 28.7992Z" fill="#163B5C"/>
</svg>
