<svg width="257" height="83" viewBox="0 0 257 83" fill="none" xmlns="http://www.w3.org/2000/svg">
<rect x="0.0258789" y="0.789062" width="256.19" height="82.1741" rx="10" fill="#163B5C"/>
<path d="M60.3136 46.7099H65.1474C65.5747 46.7099 65.9845 46.5401 66.2867 46.2379C66.5889 45.9358 66.7586 45.5259 66.7586 45.0986C66.7586 44.6713 66.5889 44.2614 66.2867 43.9593C65.9845 43.6571 65.5747 43.4874 65.1474 43.4874H60.3136C59.8863 43.4874 59.4765 43.6571 59.1743 43.9593C58.8721 44.2614 58.7024 44.6713 58.7024 45.0986C58.7024 45.5259 58.8721 45.9358 59.1743 46.2379C59.4765 46.5401 59.8863 46.7099 60.3136 46.7099ZM79.6487 30.5973H57.0911C55.8091 30.5973 54.5796 31.1066 53.6731 32.0131C52.7666 32.9196 52.2573 34.1491 52.2573 35.4311V49.9324C52.2573 51.2144 52.7666 52.4439 53.6731 53.3504C54.5796 54.2569 55.8091 54.7662 57.0911 54.7662H79.6487C80.9307 54.7662 82.1602 54.2569 83.0667 53.3504C83.9732 52.4439 84.4825 51.2144 84.4825 49.9324V35.4311C84.4825 34.1491 83.9732 32.9196 83.0667 32.0131C82.1602 31.1066 80.9307 30.5973 79.6487 30.5973ZM81.26 49.9324C81.26 50.3597 81.0902 50.7695 80.788 51.0717C80.4859 51.3739 80.076 51.5436 79.6487 51.5436H57.0911C56.6638 51.5436 56.2539 51.3739 55.9518 51.0717C55.6496 50.7695 55.4798 50.3597 55.4798 49.9324V40.2648H81.26V49.9324ZM81.26 37.0423H55.4798V35.4311C55.4798 35.0037 55.6496 34.5939 55.9518 34.2917C56.2539 33.9896 56.6638 33.8198 57.0911 33.8198H79.6487C80.076 33.8198 80.4859 33.9896 80.788 34.2917C81.0902 34.5939 81.26 35.0037 81.26 35.4311V37.0423Z" fill="#FFC100"/>
<path d="M108.046 34.9382C109.477 34.9382 110.727 35.2153 111.797 35.7696C112.88 36.311 113.711 37.0973 114.291 38.1285C114.884 39.1468 115.18 40.3391 115.18 41.7055C115.18 43.0718 114.884 44.2577 114.291 45.2631C113.711 46.2686 112.88 47.042 111.797 47.5834C110.727 48.1119 109.477 48.3761 108.046 48.3761H103.657V34.9382H108.046ZM108.046 46.5779C109.618 46.5779 110.824 46.1526 111.661 45.3018C112.499 44.4511 112.918 43.2523 112.918 41.7055C112.918 40.1458 112.499 38.9277 111.661 38.0512C110.824 37.1746 109.618 36.7364 108.046 36.7364H105.861V46.5779H108.046ZM127.129 42.7883C127.129 43.1878 127.103 43.5488 127.052 43.871H118.912C118.976 44.7218 119.292 45.4049 119.859 45.9205C120.426 46.4361 121.122 46.6939 121.947 46.6939C123.133 46.6939 123.971 46.1977 124.461 45.2051H126.839C126.517 46.1848 125.93 46.9904 125.08 47.622C124.242 48.2408 123.198 48.5501 121.947 48.5501C120.929 48.5501 120.014 48.3245 119.202 47.8734C118.403 47.4093 117.771 46.7648 117.307 45.9399C116.856 45.102 116.63 44.1353 116.63 43.0396C116.63 41.944 116.849 40.9836 117.288 40.1587C117.739 39.3208 118.364 38.6763 119.163 38.2252C119.975 37.774 120.903 37.5484 121.947 37.5484C122.953 37.5484 123.849 37.7676 124.635 38.2058C125.421 38.6441 126.034 39.2628 126.472 40.062C126.91 40.8483 127.129 41.7571 127.129 42.7883ZM124.828 42.0922C124.815 41.2801 124.525 40.6292 123.958 40.1393C123.391 39.6495 122.689 39.4046 121.851 39.4046C121.09 39.4046 120.439 39.6495 119.898 40.1393C119.356 40.6163 119.034 41.2672 118.931 42.0922H124.828ZM131.503 39.3079C131.876 38.7923 132.386 38.3734 133.03 38.0512C133.687 37.716 134.416 37.5484 135.215 37.5484C136.156 37.5484 137.007 37.774 137.767 38.2252C138.528 38.6763 139.127 39.3208 139.565 40.1587C140.004 40.9836 140.223 41.9311 140.223 43.0009C140.223 44.0708 140.004 45.0311 139.565 45.8819C139.127 46.7197 138.521 47.3771 137.748 47.8541C136.987 48.3181 136.143 48.5501 135.215 48.5501C134.39 48.5501 133.655 48.389 133.011 48.0667C132.379 47.7445 131.876 47.332 131.503 46.8293V48.3761H129.298V34.0681H131.503V39.3079ZM137.98 43.0009C137.98 42.2662 137.825 41.6346 137.516 41.1061C137.219 40.5647 136.82 40.1587 136.317 39.888C135.827 39.6044 135.299 39.4626 134.731 39.4626C134.177 39.4626 133.649 39.6044 133.146 39.888C132.656 40.1716 132.257 40.5841 131.947 41.1254C131.651 41.6668 131.503 42.3049 131.503 43.0396C131.503 43.7743 131.651 44.4188 131.947 44.9731C132.257 45.5145 132.656 45.927 133.146 46.2106C133.649 46.4941 134.177 46.6359 134.731 46.6359C135.299 46.6359 135.827 46.4941 136.317 46.2106C136.82 45.9141 137.219 45.4887 137.516 44.9345C137.825 44.3802 137.98 43.7357 137.98 43.0009ZM143.524 36.311C143.124 36.311 142.789 36.1757 142.518 35.905C142.248 35.6343 142.112 35.2991 142.112 34.8995C142.112 34.4999 142.248 34.1648 142.518 33.8941C142.789 33.6234 143.124 33.4881 143.524 33.4881C143.911 33.4881 144.239 33.6234 144.51 33.8941C144.781 34.1648 144.916 34.4999 144.916 34.8995C144.916 35.2991 144.781 35.6343 144.51 35.905C144.239 36.1757 143.911 36.311 143.524 36.311ZM144.607 37.7225V48.3761H142.402V37.7225H144.607ZM150.072 39.5206V45.4178C150.072 45.8174 150.162 46.1074 150.343 46.2879C150.536 46.4555 150.858 46.5393 151.31 46.5393H152.663V48.3761H150.923C149.93 48.3761 149.17 48.1441 148.641 47.68C148.113 47.216 147.849 46.4619 147.849 45.4178V39.5206H146.592V37.7225H147.849V35.0736H150.072V37.7225H152.663V39.5206H150.072ZM158.982 41.6282C158.982 40.3134 159.285 39.1339 159.891 38.0898C160.51 37.0457 161.341 36.2337 162.385 35.6536C163.442 35.0607 164.596 34.7642 165.846 34.7642C167.277 34.7642 168.547 35.1187 169.655 35.8276C170.777 36.5237 171.589 37.5162 172.092 38.8052H169.443C169.095 38.0963 168.611 37.5678 167.993 37.2197C167.374 36.8717 166.658 36.6977 165.846 36.6977C164.957 36.6977 164.164 36.8975 163.468 37.2971C162.772 37.6967 162.224 38.2703 161.825 39.0179C161.438 39.7655 161.245 40.6356 161.245 41.6282C161.245 42.6207 161.438 43.4908 161.825 44.2384C162.224 44.986 162.772 45.5661 163.468 45.9785C164.164 46.3781 164.957 46.5779 165.846 46.5779C166.658 46.5779 167.374 46.4039 167.993 46.0559C168.611 45.7079 169.095 45.1794 169.443 44.4704H172.092C171.589 45.7594 170.777 46.752 169.655 47.448C168.547 48.1441 167.277 48.4921 165.846 48.4921C164.583 48.4921 163.429 48.2021 162.385 47.622C161.341 47.0291 160.51 46.2106 159.891 45.1665C159.285 44.1224 158.982 42.9429 158.982 41.6282ZM173.937 43.0009C173.937 41.9311 174.156 40.9836 174.594 40.1587C175.045 39.3337 175.651 38.6957 176.412 38.2445C177.185 37.7805 178.036 37.5484 178.964 37.5484C179.802 37.5484 180.53 37.716 181.149 38.0512C181.78 38.3734 182.283 38.7794 182.657 39.2693V37.7225H184.881V48.3761H182.657V46.7906C182.283 47.2933 181.774 47.7123 181.13 48.0474C180.485 48.3825 179.75 48.5501 178.925 48.5501C178.01 48.5501 177.172 48.3181 176.412 47.8541C175.651 47.3771 175.045 46.7197 174.594 45.8819C174.156 45.0311 173.937 44.0708 173.937 43.0009ZM182.657 43.0396C182.657 42.3049 182.502 41.6668 182.193 41.1254C181.896 40.5841 181.503 40.1716 181.014 39.888C180.524 39.6044 179.995 39.4626 179.428 39.4626C178.861 39.4626 178.332 39.6044 177.843 39.888C177.353 40.1587 176.953 40.5647 176.644 41.1061C176.347 41.6346 176.199 42.2662 176.199 43.0009C176.199 43.7357 176.347 44.3802 176.644 44.9345C176.953 45.4887 177.353 45.9141 177.843 46.2106C178.345 46.4941 178.874 46.6359 179.428 46.6359C179.995 46.6359 180.524 46.4941 181.014 46.2106C181.503 45.927 181.896 45.5145 182.193 44.9731C182.502 44.4188 182.657 43.7743 182.657 43.0396ZM189.98 39.2693C190.302 38.7279 190.727 38.309 191.256 38.0125C191.797 37.7031 192.435 37.5484 193.17 37.5484V39.83H192.609C191.746 39.83 191.088 40.0491 190.637 40.4874C190.199 40.9256 189.98 41.6862 189.98 42.7689V48.3761H187.776V37.7225H189.98V39.2693ZM194.462 43.0009C194.462 41.9311 194.681 40.9836 195.119 40.1587C195.57 39.3337 196.176 38.6957 196.936 38.2445C197.71 37.7805 198.567 37.5484 199.508 37.5484C200.204 37.5484 200.887 37.7031 201.558 38.0125C202.241 38.309 202.782 38.7086 203.182 39.2113V34.0681H205.405V48.3761H203.182V46.7713C202.821 47.2869 202.318 47.7123 201.674 48.0474C201.042 48.3825 200.314 48.5501 199.489 48.5501C198.561 48.5501 197.71 48.3181 196.936 47.8541C196.176 47.3771 195.57 46.7197 195.119 45.8819C194.681 45.0311 194.462 44.0708 194.462 43.0009ZM203.182 43.0396C203.182 42.3049 203.027 41.6668 202.718 41.1254C202.421 40.5841 202.028 40.1716 201.538 39.888C201.048 39.6044 200.52 39.4626 199.953 39.4626C199.386 39.4626 198.857 39.6044 198.367 39.888C197.877 40.1587 197.478 40.5647 197.168 41.1061C196.872 41.6346 196.724 42.2662 196.724 43.0009C196.724 43.7357 196.872 44.3802 197.168 44.9345C197.478 45.4887 197.877 45.9141 198.367 46.2106C198.87 46.4941 199.398 46.6359 199.953 46.6359C200.52 46.6359 201.048 46.4941 201.538 46.2106C202.028 45.927 202.421 45.5145 202.718 44.9731C203.027 44.4188 203.182 43.7743 203.182 43.0396Z" fill="white"/>
</svg>
