<svg width="33" height="32" viewBox="0 0 33 32" fill="none" xmlns="http://www.w3.org/2000/svg">
<g id="ri:instagram-fill">
<path id="Vector" d="M16.5035 2.71484C20.0745 2.71484 20.5201 2.72799 21.9211 2.7937C23.3209 2.85942 24.2738 3.07891 25.1123 3.40486C25.9798 3.7387 26.7105 4.19083 27.4413 4.92028C28.1096 5.57731 28.6268 6.37207 28.9567 7.24927C29.2814 8.08649 29.5022 9.04069 29.5679 10.4404C29.6297 11.8415 29.6467 12.2871 29.6467 15.8581C29.6467 19.4291 29.6336 19.8747 29.5679 21.2757C29.5022 22.6755 29.2814 23.6284 28.9567 24.4669C28.6277 25.3446 28.1105 26.1396 27.4413 26.7959C26.7841 27.464 25.9894 27.9811 25.1123 28.3113C24.2751 28.636 23.3209 28.8568 21.9211 28.9225C20.5201 28.9843 20.0745 29.0014 16.5035 29.0014C12.9325 29.0014 12.4869 28.9882 11.0858 28.9225C9.68608 28.8568 8.73319 28.636 7.89465 28.3113C7.01711 27.9821 6.22221 27.4648 5.56567 26.7959C4.89721 26.139 4.38006 25.3442 4.05025 24.4669C3.7243 23.6297 3.50481 22.6755 3.43909 21.2757C3.37732 19.8747 3.36023 19.4291 3.36023 15.8581C3.36023 12.2871 3.37337 11.8415 3.43909 10.4404C3.50481 9.03938 3.7243 8.08781 4.05025 7.24927C4.37914 6.37153 4.89642 5.57655 5.56567 4.92028C6.2224 4.25159 7.01725 3.7344 7.89465 3.40486C8.73319 3.07891 9.68476 2.85942 11.0858 2.7937C12.4869 2.73193 12.9325 2.71484 16.5035 2.71484ZM16.5035 9.28647C14.7606 9.28647 13.0891 9.97884 11.8566 11.2113C10.6242 12.4437 9.93186 14.1152 9.93186 15.8581C9.93186 17.601 10.6242 19.2725 11.8566 20.5049C13.0891 21.7374 14.7606 22.4297 16.5035 22.4297C18.2464 22.4297 19.9179 21.7374 21.1503 20.5049C22.3827 19.2725 23.0751 17.601 23.0751 15.8581C23.0751 14.1152 22.3827 12.4437 21.1503 11.2113C19.9179 9.97884 18.2464 9.28647 16.5035 9.28647ZM25.0466 8.95789C25.0466 8.52216 24.8735 8.10428 24.5654 7.79618C24.2573 7.48807 23.8394 7.31498 23.4037 7.31498C22.968 7.31498 22.5501 7.48807 22.242 7.79618C21.9339 8.10428 21.7608 8.52216 21.7608 8.95789C21.7608 9.39362 21.9339 9.8115 22.242 10.1196C22.5501 10.4277 22.968 10.6008 23.4037 10.6008C23.8394 10.6008 24.2573 10.4277 24.5654 10.1196C24.8735 9.8115 25.0466 9.39362 25.0466 8.95789ZM16.5035 11.9151C17.5492 11.9151 18.5521 12.3305 19.2916 13.07C20.031 13.8094 20.4465 14.8124 20.4465 15.8581C20.4465 16.9038 20.031 17.9068 19.2916 18.6462C18.5521 19.3857 17.5492 19.8011 16.5035 19.8011C15.4577 19.8011 14.4548 19.3857 13.7154 18.6462C12.9759 17.9068 12.5605 16.9038 12.5605 15.8581C12.5605 14.8124 12.9759 13.8094 13.7154 13.07C14.4548 12.3305 15.4577 11.9151 16.5035 11.9151Z" fill="white"/>
</g>
</svg>
