<svg width="26" height="26" viewBox="0 0 26 26" fill="none" xmlns="http://www.w3.org/2000/svg">
<path d="M19 23.5986C18.125 23.5986 17.3812 23.2923 16.7687 22.6798C16.1562 22.0673 15.85 21.3236 15.85 20.4486C15.85 20.3261 15.8587 20.199 15.8762 20.0674C15.8937 19.9365 15.92 19.8186 15.955 19.7136L8.5525 15.4086C8.255 15.6711 7.9225 15.8765 7.555 16.0249C7.1875 16.174 6.8025 16.2486 6.4 16.2486C5.525 16.2486 4.78125 15.9423 4.16875 15.3298C3.55625 14.7173 3.25 13.9736 3.25 13.0986C3.25 12.2236 3.55625 11.4798 4.16875 10.8673C4.78125 10.2548 5.525 9.94857 6.4 9.94857C6.8025 9.94857 7.1875 10.0228 7.555 10.1712C7.9225 10.3203 8.255 10.5261 8.5525 10.7886L15.955 6.48357C15.92 6.37857 15.8937 6.26062 15.8762 6.12972C15.8587 5.99812 15.85 5.87107 15.85 5.74857C15.85 4.87357 16.1562 4.12982 16.7687 3.51732C17.3812 2.90482 18.125 2.59857 19 2.59857C19.875 2.59857 20.6187 2.90482 21.2312 3.51732C21.8438 4.12982 22.15 4.87357 22.15 5.74857C22.15 6.62357 21.8438 7.36732 21.2312 7.97982C20.6187 8.59232 19.875 8.89857 19 8.89857C18.5975 8.89857 18.2125 8.82402 17.845 8.67492C17.4775 8.52652 17.145 8.32107 16.8475 8.05857L9.445 12.3636C9.48 12.4686 9.50625 12.5865 9.52375 12.7174C9.54125 12.849 9.55 12.9761 9.55 13.0986C9.55 13.2211 9.54125 13.3478 9.52375 13.4787C9.50625 13.6103 9.48 13.7286 9.445 13.8336L16.8475 18.1386C17.145 17.8761 17.4775 17.6703 17.845 17.5212C18.2125 17.3728 18.5975 17.2986 19 17.2986C19.875 17.2986 20.6187 17.6048 21.2312 18.2173C21.8438 18.8298 22.15 19.5736 22.15 20.4486C22.15 21.3236 21.8438 22.0673 21.2312 22.6798C20.6187 23.2923 19.875 23.5986 19 23.5986Z" fill="#010101"/>
</svg>
