<svg width="21" height="21" viewBox="0 0 21 21" fill="none" xmlns="http://www.w3.org/2000/svg">
<g id="material-symbols:star-rounded">
<path id="Vector" d="M10.4582 15.6688L6.94727 17.7838C6.79217 17.8825 6.63002 17.9248 6.46081 17.9107C6.29161 17.8966 6.14356 17.8402 6.01666 17.7415C5.88975 17.6428 5.79105 17.5196 5.72055 17.3718C5.65005 17.2235 5.63595 17.0577 5.67825 16.8744L6.60887 12.877L3.49977 10.1909C3.35876 10.064 3.27078 9.91931 3.23581 9.75687C3.20028 9.595 3.21071 9.43652 3.26711 9.28141C3.32351 9.12631 3.40811 8.99941 3.52092 8.90071C3.63372 8.802 3.78882 8.73855 3.98622 8.71035L8.08939 8.3508L9.67566 4.58604C9.74617 4.41684 9.85558 4.28993 10.0039 4.20533C10.1517 4.12073 10.3031 4.07843 10.4582 4.07843C10.6133 4.07843 10.765 4.12073 10.9134 4.20533C11.0612 4.28993 11.1703 4.41684 11.2408 4.58604L12.8271 8.3508L16.9302 8.71035C17.1276 8.73855 17.2827 8.802 17.3955 8.90071C17.5083 8.99941 17.5929 9.12631 17.6493 9.28141C17.7057 9.43652 17.7165 9.595 17.6815 9.75687C17.646 9.91931 17.5577 10.064 17.4167 10.1909L14.3076 12.877L15.2382 16.8744C15.2805 17.0577 15.2664 17.2235 15.1959 17.3718C15.1254 17.5196 15.0267 17.6428 14.8998 17.7415C14.7729 17.8402 14.6248 17.8966 14.4556 17.9107C14.2864 17.9248 14.1243 17.8825 13.9692 17.7838L10.4582 15.6688Z" fill="#163B5C"/>
</g>
</svg>
