<svg width="67" height="67" viewBox="0 0 67 67" fill="none" xmlns="http://www.w3.org/2000/svg">
<path d="M33.4979 66.6044C28.8593 66.6044 24.5324 65.7564 20.5172 64.0605C16.502 62.3646 13.0093 60.0315 10.0391 57.0613C7.06898 54.0912 4.73591 50.5985 3.03995 46.5833C1.34405 42.5681 0.496094 38.2412 0.496094 33.6026C0.496094 29.0007 1.34405 24.6921 3.03995 20.6769C4.73591 16.6617 7.06898 13.169 10.0391 10.1988C13.0093 7.22866 16.502 4.88647 20.5172 3.17225C24.5324 1.45797 28.8593 0.60083 33.4979 0.60083C37.4398 0.60083 41.1341 1.21502 44.581 2.4434C48.0278 3.67184 51.1538 5.36777 53.959 7.5312L49.9988 11.5189C47.6887 9.79548 45.1494 8.46166 42.3809 7.51743C39.6124 6.57319 36.6514 6.10107 33.4979 6.10107C25.7425 6.10107 19.22 8.74581 13.9305 14.0353C8.64107 19.3247 5.99633 25.8472 5.99633 33.6026C5.99633 41.358 8.64107 47.8805 13.9305 53.1699C19.22 58.4594 25.7425 61.1041 33.4979 61.1041C41.2533 61.1041 47.7757 58.4594 53.0652 53.1699C58.3547 47.8805 60.9994 41.358 60.9994 33.6026C60.9994 32.1725 60.8986 30.77 60.6969 29.3949C60.4952 28.0197 60.1926 26.6813 59.7893 25.3796L64.107 21.0619C64.8954 23.0054 65.4912 25.0221 65.8946 27.1122C66.298 29.2023 66.4996 31.3658 66.4996 33.6026C66.4996 38.2412 65.6425 42.5681 63.9282 46.5833C62.214 50.5985 59.8718 54.0912 56.9017 57.0613C53.9315 60.0315 50.4388 62.3646 46.4236 64.0605C42.4084 65.7564 38.0998 66.6044 33.4979 66.6044ZM28.7126 48.6734L14.9618 34.8676L18.9771 30.8525L28.7126 40.588L62.4845 6.78866L66.5547 10.8039L28.7126 48.6734Z" fill="#1C1B1F"/>
</svg>
