<svg width="33" height="32" viewBox="0 0 33 32" fill="none" xmlns="http://www.w3.org/2000/svg">
<g id="fe:twitter">
<path id="Vector" d="M11.5457 26.7184C21.465 26.7184 26.8918 18.492 26.8918 11.371C26.8918 11.1397 26.8918 10.9084 26.8813 10.677C27.9381 9.91121 28.8501 8.96323 29.5744 7.87753C28.5881 8.31327 27.5429 8.60072 26.4725 8.73052C27.6003 8.05534 28.4447 6.9938 28.8488 5.74306C27.7888 6.37191 26.6284 6.81341 25.4185 7.04819C24.9148 6.51007 24.306 6.08111 23.6298 5.78789C22.9536 5.49466 22.2244 5.34341 21.4873 5.34351C20.0564 5.34455 18.6843 5.91346 17.6725 6.92529C16.6606 7.93713 16.0917 9.30917 16.0907 10.7401C16.0907 11.1607 16.1433 11.5708 16.2274 11.9703C14.0823 11.8626 11.9838 11.305 10.0682 10.3336C8.15256 9.36217 6.46266 7.99877 5.10818 6.33188C4.41985 7.52076 4.20972 8.92702 4.52046 10.2652C4.8312 11.6033 5.63952 12.7731 6.78132 13.537C5.92579 13.5074 5.08924 13.2769 4.3393 12.8641V12.9377C4.34046 14.1827 4.77136 15.3892 5.55921 16.3533C6.34706 17.3174 7.44355 17.98 8.66343 18.2292C8.20112 18.3567 7.72354 18.4204 7.24396 18.4184C6.89567 18.4184 6.5592 18.3869 6.23193 18.3238C6.57581 19.396 7.24661 20.3337 8.15029 21.0055C9.05398 21.6772 10.1452 22.0493 11.2711 22.0696C9.36075 23.5713 7.0005 24.3861 4.57062 24.3828C4.13952 24.3828 3.70843 24.3618 3.28784 24.3092C5.75445 25.8833 8.61971 26.7192 11.5457 26.7184Z" fill="white"/>
</g>
</svg>
